# xmcd
#
# Track frame offsets:
#	180
#	13923
#	27098
#	39815
#	59677
#	72354
#	86464
#	99393
#	113752
#	128364
#	140923
#
# Disc length: 2084 seconds
#
# Revision: 1
# Processed by: cddbd v1.5.2PL0 Copyright (c) Steve Scherf et al.
# Submitted via: audiograbber 1.83.01
#
DISCID=8d08220b
DTITLE=Mainstreet - Following a Full Moon
DYEAR=1995
DGENRE=Country
TTITLE0=Take This Heart
TTITLE1=Storm Clouds
TTITLE2=Do You Miss Me Yet?
TTITLE3=Nothing Left to Say
TTITLE4=Following a Full Moon
TTITLE5=She's So Happy
TTITLE6=You Found Me Out
TTITLE7=It Takes Two
TTITLE8=Memories
TTITLE9=Keeping Up
TTITLE10=Your Star's Still Shining
EXTD=
EXTT0=
EXTT1=
EXTT2=
EXTT3=
EXTT4=
EXTT5=
EXTT6=
EXTT7=
EXTT8=
EXTT9=
EXTT10=
PLAYORDER=
